<svg id="Layer_1" data-name="Layer 1" xmlns="http://www.w3.org/2000/svg" xmlns:xlink="http://www.w3.org/1999/xlink" viewBox="0 0 359.22 394.97"><defs><linearGradient id="linear-gradient" x1="349.8" y1="394.39" x2="349.8" y2="138.25" gradientUnits="userSpaceOnUse"><stop offset="0" stop-color="#a4722e"/><stop offset="0.03" stop-color="#a87633"/><stop offset="0.18" stop-color="#b48546"/><stop offset="0.35" stop-color="#bd8f53"/><stop offset="0.56" stop-color="#c2955b"/><stop offset="1" stop-color="#c4975d"/></linearGradient></defs><ellipse cx="177.64" cy="295.62" rx="72.48" ry="24.85" fill="#6a9b78"/><path d="M270.11,306.29l-9.78,10c41.22,43.48,125.66,53.89,178.94.9l-9.62-10.3C376.24,348.52,323.48,347.65,270.11,306.29Z" transform="translate(-172.29 -98.77)" fill="#e8bb90"/><path d="M349.5,394.39c-3.33-5.39-6-9.59-8.54-13.84-5.57-9.24-11.09-18.51-16.64-27.77C317,340.51,309.69,328.19,302.17,316a27.85,27.85,0,0,0-6.48-7.36c-20.76-15.91-33.81-36.56-37.84-62.44-9.07-58.28,36.5-105.45,87.68-107.88,47.39-2.25,88.4,32.57,95.8,76.31,5.86,34.58-4.68,64.22-30.31,87.53-11.68,10.61-19.43,23.11-26.7,36.53-3.86,7.14-8.93,13.62-13.19,20.56C365,369.34,359,379.56,353,389.69,352.16,391,351.1,392.24,349.5,394.39Zm.8-88.35c43.65.59,77.16-35.73,76.81-76.06-.37-43-35.19-76.8-78.47-76.37-41.91.42-76.43,35.65-75.89,77.46S308.16,306.52,350.3,306Z" transform="translate(-172.29 -98.77)" fill="url(#linear-gradient)"/><path d="M381.82,123.24l3.87-13.48c58.21,14.18,109.18,82.31,89.65,154.87l-13.72-3.23C471.19,194.39,444.22,149,381.82,123.24Z" transform="translate(-172.29 -98.77)" fill="#e8bb90"/><path d="M323.07,123.24l-3.87-13.48C261,123.94,210,192.07,229.55,264.63l13.72-3.23C233.71,194.39,260.67,149,323.07,123.24Z" transform="translate(-172.29 -98.77)" fill="#e8bb90"/><path d="M350.21,120.16c-6.09,0-11.48-5.08-11.45-10.86,0-4.91,5.06-10.43,9.6-10.53,7.47-.16,12.59,4.36,12.49,11A10.71,10.71,0,0,1,350.21,120.16Z" transform="translate(-172.29 -98.77)" fill="#6a9b78"/><path d="M471.08,291.77c0,6.57-4,10.49-10.64,10.51-5.68,0-10.53-4.39-10.69-9.7-.18-5.73,5.25-11.3,11.08-11.37S471.07,285.63,471.08,291.77Z" transform="translate(-172.29 -98.77)" fill="#6a9b78"/><path d="M235.43,291.71c0,6.57,3.91,10.52,10.58,10.57,5.68,0,10.56-4.33,10.75-9.64.21-5.73-5.19-11.33-11-11.43S235.47,285.57,235.43,291.71Z" transform="translate(-172.29 -98.77)" fill="#6a9b78"/><path d="M348.25,263.76H337.53a52.44,52.44,0,0,1-1-6.23c-3.85,4.58-9.09,7.53-20.54,7.53-19.73,0-30.72-13.58-30.72-31.4s11.71-32.1,33.48-32.1c19.55,0,28,10.62,29.61,19.49h-14.9c-1.2-3.08-4.71-8.33-14.72-8.33-12.47,0-17.89,8.89-17.89,20.21,0,12,5.65,20.89,18.07,20.89,10.31,0,15-5.35,15-12.61v-1H319.11v-11.4h29.14Z" transform="translate(-172.29 -98.77)" fill="#a4722e"/><path d="M418.51,233.1c0,16.87-11.26,32-33.41,32-20.65,0-32.45-14.12-32.45-31.9,0-16.75,12.49-31.6,33.14-31.6C407.05,201.56,418.51,216.49,418.51,233.1ZM368.23,233c0,11.51,5.84,20.53,17.71,20.53,12.26,0,17-10.34,17-20.24,0-10.79-5.26-20.17-17.59-20.17C373.49,213.1,368.23,222.71,368.23,233Z" transform="translate(-172.29 -98.77)" fill="#a4722e"/><path d="M235.25,492.44H224.53a52.89,52.89,0,0,1-1-6.24c-3.86,4.59-9.09,7.53-20.55,7.53-19.72,0-30.72-13.57-30.72-31.39s11.71-32.1,33.48-32.1c19.56,0,28,10.62,29.61,19.48h-14.9c-1.2-3.07-4.71-8.32-14.72-8.32-12.47,0-17.89,8.89-17.89,20.21,0,11.95,5.65,20.89,18.07,20.89,10.31,0,15-5.35,15-12.61v-1H206.11v-11.4h29.14Z" transform="translate(-172.29 -98.77)" fill="#a4722e"/><path d="M290,470.06c0,13.75-9.51,23.59-26.1,23.59s-25.15-11.19-25.15-23.58,8.81-23.53,25.73-23.53C281.87,446.54,290,459,290,470.06Zm-36.87,0C253.11,477,257,483,264.36,483c7.61,0,11.09-5.87,11.09-12.68s-3.36-13.09-11.2-13.09C256.59,457.21,253.11,463.18,253.11,470.07Z" transform="translate(-172.29 -98.77)" fill="#a4722e"/><path d="M354.84,492.44H344.12a52.65,52.65,0,0,1-1-6.24c-3.85,4.59-9.09,7.53-20.54,7.53-19.73,0-30.72-13.57-30.72-31.39s11.71-32.1,33.48-32.1c19.55,0,28,10.62,29.61,19.48h-14.9c-1.2-3.07-4.71-8.32-14.72-8.32-12.47,0-17.89,8.89-17.89,20.21,0,11.95,5.65,20.89,18.07,20.89,10.31,0,15-5.35,15-12.61v-1H325.7v-11.4h29.14Z" transform="translate(-172.29 -98.77)" fill="#a4722e"/><path d="M405.75,479.43c0,4.31-.07,8.69,0,13H392c-.17-1.21-.19-3.26-.27-5.23-2.24,3.51-5.64,6.44-15,6.44S360,488.2,360,475.05v-27.3h14.13v25c0,5.94,2.16,9.94,8,9.94,6.86,0,9.42-4,9.42-14.25V447.75h14.12Z" transform="translate(-172.29 -98.77)" fill="#a4722e"/><path d="M411.21,428.05h14.13v11.29H411.21Zm0,19.7h14.13v44.69H411.21Z" transform="translate(-172.29 -98.77)" fill="#a4722e"/><path d="M479.22,428.05v51.82c0,4.16,0,8.41.08,12.57H465.36c-.19-1.33-.27-3.43-.35-5.17-2.45,3.44-5.6,6.38-14.87,6.38-12.42,0-21.69-9.22-21.69-23.17,0-15.07,12-23.94,23-23.94,8.72,0,12.26,3,13.55,4.61v-23.1ZM443,470.16c0,7,4.07,12.44,11.31,12.44s11.07-4.81,11.07-12.5-3-12.59-11-12.59C446.68,457.51,443,463.58,443,470.16Z" transform="translate(-172.29 -98.77)" fill="#a4722e"/><path d="M496.39,473.53c.36,5.4,4.28,9.62,11,9.62,5.34,0,7.86-1.63,9.48-4.38H531c-2.69,7.92-9.41,14.88-23.76,14.88-18.29,0-24.89-12.14-24.89-23.5,0-12.58,8.46-23.61,24.79-23.61,17.39,0,24.4,12,24.4,23.62,0,1.13,0,1.94-.07,3.37Zm20.79-8.65c-.28-3.41-2.12-8.45-10.08-8.45-7.42,0-10.12,4.05-10.54,8.45Z" transform="translate(-172.29 -98.77)" fill="#a4722e"/></svg>