<svg id="Layer_1" data-name="Layer 1" xmlns="http://www.w3.org/2000/svg" xmlns:xlink="http://www.w3.org/1999/xlink" viewBox="0 0 497.69 533.78"><defs><radialGradient id="radial-gradient" cx="350.04" cy="248.33" r="155.64" gradientUnits="userSpaceOnUse"><stop offset="0" stop-color="#5459a7"/><stop offset="0.32" stop-color="#5158a5"/><stop offset="0.52" stop-color="#4954a0"/><stop offset="0.68" stop-color="#3b4e97"/><stop offset="0.82" stop-color="#27458b"/><stop offset="0.95" stop-color="#0d3a7b"/><stop offset="1" stop-color="#003473"/></radialGradient></defs><ellipse cx="246.94" cy="395.68" rx="100.76" ry="34.55" fill="#44b75e" opacity="0.3"/><path d="M239.25,303.89l-13.59,14c57.29,60.44,174.69,74.91,248.76,1.25L461,304.8C386.79,362.61,313.44,361.39,239.25,303.89Z" transform="translate(-103.27 -30.69)" fill="#44b75e"/><path d="M349.62,426.37c-4.63-7.49-8.31-13.33-11.88-19.24q-11.61-19.28-23.13-38.61c-10.22-17-20.34-34.17-30.79-51.09a38.5,38.5,0,0,0-9-10.23c-28.86-22.12-47-50.83-52.6-86.8-12.61-81,50.73-146.59,121.87-150C410,67.31,467,115.71,477.28,176.52c8.14,48.06-6.51,89.28-42.14,121.67C418.91,313,408.13,330.32,398,349c-5.38,9.93-12.42,18.93-18.34,28.58-8.59,14-16.81,28.2-25.25,42.28C353.32,421.71,351.85,423.37,349.62,426.37Zm1.12-122.83c60.67.83,107.25-49.66,106.77-105.73C457,138,408.59,91.05,348.43,91.65c-58.27.59-106.25,49.55-105.51,107.68S292.14,304.22,350.74,303.54Z" transform="translate(-103.27 -30.69)" fill="url(#radial-gradient)"/><path d="M394.55,49.43l5.38-18.74C480.85,50.41,551.71,145.11,524.56,246l-19.08-4.5C518.78,148.33,481.3,85.27,394.55,49.43Z" transform="translate(-103.27 -30.69)" fill="#44b75e"/><path d="M312.88,49.43,307.5,30.69C226.58,50.41,155.72,145.11,182.87,246l19.07-4.5C188.65,148.33,226.13,85.27,312.88,49.43Z" transform="translate(-103.27 -30.69)" fill="#44b75e"/><path d="M350.21,120.16c-6.09,0-11.48-5.08-11.45-10.86,0-4.91,5.06-10.43,9.6-10.53,7.47-.16,12.59,4.36,12.49,11A10.71,10.71,0,0,1,350.21,120.16Z" transform="translate(-103.27 -30.69)" fill="#97d0a2"/><path d="M518.63,283.71c0,9.13-5.52,14.59-14.78,14.61-7.9,0-14.65-6.1-14.87-13.48-.25-8,7.3-15.72,15.41-15.81S518.63,275.17,518.63,283.71Z" transform="translate(-103.27 -30.69)" fill="#97d0a2"/><path d="M191.05,283.62c-.06,9.13,5.43,14.63,14.7,14.7,7.9.06,14.68-6,14.95-13.4.29-8-7.22-15.75-15.33-15.89S191.1,275.09,191.05,283.62Z" transform="translate(-103.27 -30.69)" fill="#97d0a2"/><path d="M347.88,244.77H333a72.35,72.35,0,0,1-1.36-8.66c-5.36,6.37-12.63,10.46-28.55,10.46-27.43,0-42.72-18.87-42.72-43.64s16.28-44.63,46.55-44.63c27.18,0,38.91,14.77,41.16,27.09H327.35c-1.67-4.27-6.55-11.57-20.46-11.57-17.34,0-24.87,12.35-24.87,28.1,0,16.61,7.85,29,25.11,29,14.33,0,20.87-7.44,20.87-17.53v-1.34H307.37V196.23h40.51Z" transform="translate(-103.27 -30.69)" fill="#3e3b97"/><path d="M445.91,202.14c0,23.47-15.65,44.43-46.44,44.43-28.71,0-45.11-19.62-45.11-44.33,0-23.29,17.36-43.94,46.06-43.94C430,158.3,445.91,179.05,445.91,202.14ZM376,202c0,16,8.11,28.55,24.61,28.55,17.05,0,23.62-14.38,23.62-28.15,0-15-7.31-28-24.44-28C383.33,174.35,376,187.71,376,202Z" transform="translate(-103.27 -30.69)" fill="#3e3b97"/><path d="M190.79,562.67h-14.9a72.59,72.59,0,0,1-1.35-8.66c-5.37,6.37-12.64,10.46-28.56,10.46-27.43,0-42.71-18.87-42.71-43.64s16.28-44.63,46.54-44.63C177,476.2,188.72,491,191,503.29H170.26c-1.67-4.28-6.54-11.58-20.46-11.58-17.33,0-24.87,12.36-24.87,28.11,0,16.61,7.85,29,25.11,29,14.34,0,20.87-7.44,20.87-17.53V530H150.28V514.13h40.51Z" transform="translate(-103.27 -30.69)" fill="#4d4ea1"/><path d="M266.4,531.56c0,19.12-13.22,32.79-36.28,32.79s-35-15.55-35-32.78c0-17,12.24-32.7,35.76-32.7C255.12,498.87,266.4,516.15,266.4,531.56Zm-51.26,0c0,9.66,5.36,18,15.64,18,10.58,0,15.42-8.17,15.42-17.64s-4.67-18.2-15.57-18.2C220,513.69,215.14,522,215.14,531.57Z" transform="translate(-103.27 -30.69)" fill="#4d4ea1"/><path d="M355.6,562.67H340.7a72.35,72.35,0,0,1-1.36-8.66c-5.36,6.37-12.63,10.46-28.55,10.46-27.43,0-42.72-18.87-42.72-43.64s16.28-44.63,46.55-44.63c27.18,0,38.91,14.77,41.16,27.09H335.07c-1.67-4.28-6.55-11.58-20.46-11.58-17.34,0-24.87,12.36-24.87,28.11,0,16.61,7.85,29,25.11,29,14.33,0,20.86-7.44,20.86-17.53V530H315.09V514.13H355.6Z" transform="translate(-103.27 -30.69)" fill="#4d4ea1"/><path d="M426.86,544.59c0,6-.11,12.08,0,18.08H407.7c-.24-1.68-.27-4.53-.38-7.26-3.11,4.88-7.83,8.94-20.87,8.94s-23.15-7.58-23.15-25.85V500.55H383v34.7c0,8.26,3,13.83,11.17,13.83,9.54,0,13.1-5.6,13.1-19.82V500.55h19.64Z" transform="translate(-103.27 -30.69)" fill="#4d4ea1"/><path d="M434.44,473.17h19.64v15.69H434.44Zm0,27.38h19.64v62.12H434.44Z" transform="translate(-103.27 -30.69)" fill="#4d4ea1"/><path d="M528.63,473.17v72c0,5.79,0,11.69.12,17.48H509.36c-.26-1.84-.38-4.77-.48-7.18-3.42,4.77-7.8,8.86-20.68,8.86-17.26,0-30.15-12.81-30.15-32.21,0-20.95,16.62-33.27,32-33.27,12.12,0,17,4.11,18.84,6.4v-32.1Zm-50.38,58.54c0,9.79,5.66,17.29,15.72,17.29s15.39-6.69,15.39-17.38-4.2-17.5-15.31-17.5C483.39,514.12,478.25,522.55,478.25,531.71Z" transform="translate(-103.27 -30.69)" fill="#4d4ea1"/><path d="M552.13,536.39c.51,7.5,6,13.36,15.26,13.36,7.42,0,10.92-2.26,13.18-6.08h19.64c-3.74,11-13.08,20.68-33,20.68-25.43,0-34.61-16.87-34.61-32.66,0-17.49,11.76-32.82,34.46-32.82,24.17,0,33.92,16.65,33.92,32.83,0,1.56,0,2.7-.1,4.69Zm28.91-12c-.39-4.74-2.95-11.74-14-11.74-10.31,0-14.06,5.63-14.65,11.74Z" transform="translate(-103.27 -30.69)" fill="#4d4ea1"/></svg>