<?xml version="1.0" encoding="utf-8"?>
<!-- Generator: Adobe Illustrator 24.3.0, SVG Export Plug-In . SVG Version: 6.00 Build 0)  -->
<svg version="1.1" id="Layer_1" xmlns="http://www.w3.org/2000/svg" xmlns:xlink="http://www.w3.org/1999/xlink" x="0px" y="0px"
	 viewBox="0 0 864 864" enable-background="new 0 0 864 864" xml:space="preserve">
<g>
	<ellipse opacity="0.3" fill="#44B75E" cx="427.078" cy="691.314" rx="141.575" ry="48.54"/>
	<path fill="#44B75E" d="M271.173,519.228c-6.082,6.252-12.603,12.956-19.102,19.636c80.508,84.93,245.449,105.261,349.525,1.766
		c-6.276-6.721-12.582-13.475-18.793-20.126C478.472,601.726,375.418,600.016,271.173,519.228z"/>
	<radialGradient id="SVGID_1_" cx="426.8345" cy="441.1621" r="218.6881" gradientUnits="userSpaceOnUse">
		<stop  offset="0" style="stop-color:#5459A7"/>
		<stop  offset="0.31" style="stop-color:#5157A4"/>
		<stop  offset="0.4958" style="stop-color:#4A54A0"/>
		<stop  offset="0.6489" style="stop-color:#3F4F98"/>
		<stop  offset="0.7841" style="stop-color:#2E488E"/>
		<stop  offset="0.9063" style="stop-color:#163E81"/>
		<stop  offset="1" style="stop-color:#003473"/>
	</radialGradient>
	<path fill="url(#SVGID_1_)" d="M426.253,691.314c-6.507-10.522-11.687-18.722-16.693-27.027
		c-10.881-18.054-21.663-36.168-32.502-54.247c-14.366-23.961-28.574-48.02-43.258-71.784c-3.319-5.37-7.668-10.552-12.652-14.372
		c-40.547-31.083-66.042-71.42-73.909-121.968c-17.716-113.828,71.285-205.96,171.244-210.703
		c92.565-4.392,172.669,63.61,187.136,149.055c11.432,67.526-9.142,125.437-59.209,170.951
		c-22.811,20.736-37.952,45.151-52.145,71.364c-7.552,13.947-17.453,26.599-25.772,40.156
		c-12.061,19.656-23.619,39.621-35.475,59.404C431.441,684.771,429.378,687.108,426.253,691.314z M427.816,518.737
		c85.252,1.161,150.698-69.775,150.022-148.558c-0.722-84.036-68.728-150.008-153.264-149.159
		c-81.871,0.823-149.286,69.622-148.249,151.294C277.36,453.836,345.491,519.687,427.816,518.737z"/>
	<path fill="#44B75E" d="M489.373,161.7c2.406-8.383,4.986-17.373,7.557-26.331c113.698,27.699,213.259,160.766,175.116,302.499
		c-8.95-2.109-17.944-4.229-26.801-6.316C663.928,300.657,611.264,212.059,489.373,161.7z"/>
	<path fill="#44B75E" d="M374.627,161.7c-2.406-8.383-4.986-17.373-7.557-26.331c-113.698,27.7-213.259,160.766-175.116,302.499
		c8.95-2.109,17.944-4.229,26.801-6.316C200.072,300.657,252.736,212.059,374.627,161.7z"/>
	<path fill="#97D0A2" d="M663.721,490.869c0.011,12.829-7.757,20.503-20.778,20.527c-11.096,0.021-20.571-8.57-20.891-18.942
		c-0.346-11.196,10.266-22.078,21.656-22.206C655.211,470.118,663.711,478.876,663.721,490.869z"/>
	<path fill="#97D0A2" d="M447.917,144.769c0.011,12.829-7.757,20.503-20.778,20.527c-11.096,0.021-20.571-8.57-20.891-18.942
		c-0.346-11.196,10.266-22.078,21.656-22.206C439.407,124.018,447.907,132.775,447.917,144.769z"/>
	<path fill="#97D0A2" d="M203.442,490.751c-0.084,12.828,7.641,20.547,20.662,20.645c11.096,0.084,20.619-8.453,20.998-18.824
		c0.409-11.194-10.141-22.135-21.53-22.329C212.07,470.049,203.521,478.758,203.442,490.751z"/>
	<g>
		<g>
			<path fill="#3E3B97" d="M423.799,436.158h-20.935c-0.656-2.614-1.48-7.895-1.906-12.171
				c-7.533,8.956-17.753,14.704-40.122,14.704c-38.537,0-60.013-26.511-60.013-61.323c0-34.746,22.875-62.702,65.398-62.702
				c38.193,0,54.671,20.756,57.826,38.064h-29.098c-2.343-6.01-9.192-16.265-28.748-16.265c-24.352,0-34.942,17.361-34.942,39.484
				c0,23.346,11.037,40.794,35.288,40.794c20.137,0,29.315-10.45,29.315-24.632v-1.884h-28.978v-22.266h56.914V436.158z"/>
			<path fill="#3E3B97" d="M561.208,376.267c0,32.969-21.99,62.425-65.257,62.425c-40.342,0-63.385-27.571-63.385-62.296
				c0-32.719,24.402-61.729,64.723-61.729C538.826,314.666,561.208,343.825,561.208,376.267z M463.002,376.037
				c0,22.496,11.401,40.112,34.584,40.112c23.954,0,33.186-20.206,33.186-39.544c0-21.077-10.272-39.396-34.348-39.396
				C473.268,337.209,463.002,355.988,463.002,376.037z"/>
		</g>
	</g>
</g>
<g>
</g>
<g>
</g>
<g>
</g>
<g>
</g>
<g>
</g>
<g>
</g>
</svg>
